<?xml version="1.0" encoding="UTF-8" standalone="no"?>
<!DOCTYPE svg PUBLIC "-//W3C//DTD SVG 1.1//EN" "http://www.w3.org/Graphics/SVG/1.1/DTD/svg11.dtd">
<svg width="100%" height="100%" viewBox="0 0 8 8" version="1.1" xmlns="http://www.w3.org/2000/svg" xmlns:xlink="http://www.w3.org/1999/xlink" xml:space="preserve" xmlns:serif="http://www.serif.com/" style="fill-rule:evenodd;clip-rule:evenodd;stroke-linejoin:round;stroke-miterlimit:1.41421;">
    <g transform="matrix(6.12323e-17,1,-1,6.12323e-17,9,-1)">
        <g transform="matrix(1.6,0,0,1.6,-0.6,-3.8)">
            <path d="M3.5,5.5L3.5,8C2.12,8 1,6.88 1,5.5" style="fill:rgb(0,57,133);"/>
        </g>
        <path d="M1.801,2.599C2.023,2.535 2.258,2.5 2.5,2.5C3.88,2.5 5,3.62 5,5L1,5C1,4.489 1.096,3.999 1.271,3.55C1.405,3.207 1.584,2.888 1.801,2.599Z" style="fill:rgb(0,57,133);"/>
    </g>
    <g transform="matrix(1,0,0,1,-1,-1)">
        <g transform="matrix(1.6,0,0,1.6,-0.6,-3.8)">
            <path d="M3.5,5.5L3.5,8C2.12,8 1,6.88 1,5.5" style="fill:rgb(159,82,189);"/>
        </g>
        <path d="M1.801,2.599C2.023,2.535 2.258,2.5 2.5,2.5C3.88,2.5 5,3.62 5,5L1,5C1,4.489 1.096,3.999 1.271,3.55C1.405,3.207 1.584,2.888 1.801,2.599Z" style="fill:rgb(159,82,189);"/>
    </g>
    <g transform="matrix(-1.83697e-16,-1,1,-1.83697e-16,-1,9)">
        <g transform="matrix(1.6,0,0,1.6,-0.6,-3.8)">
            <path d="M3.5,5.5L3.5,8C2.12,8 1,6.88 1,5.5" style="fill:rgb(19,197,62);"/>
        </g>
        <path d="M1.801,2.599C2.023,2.535 2.258,2.5 2.5,2.5C3.88,2.5 5,3.62 5,5L1,5C1,4.489 1.096,3.999 1.271,3.55C1.405,3.207 1.584,2.888 1.801,2.599Z" style="fill:rgb(19,197,62);"/>
    </g>
    <g transform="matrix(-1,1.22465e-16,-1.22465e-16,-1,9,9)">
        <g transform="matrix(1.6,0,0,1.6,-0.6,-3.8)">
            <path d="M3.5,5.5L3.5,8C2.12,8 1,6.88 1,5.5" style="fill:rgb(252,0,121);"/>
        </g>
        <path d="M1.801,2.599C2.023,2.535 2.258,2.5 2.5,2.5C3.88,2.5 5,3.62 5,5L1,5C1,4.489 1.096,3.999 1.271,3.55C1.405,3.207 1.584,2.888 1.801,2.599Z" style="fill:rgb(252,0,121);"/>
    </g>
    <g transform="matrix(6.12323e-17,1,-1,6.12323e-17,9,-1)">
        <path d="M1.801,2.599C2.023,2.535 2.258,2.5 2.5,2.5C3.88,2.5 5,3.62 5,5L1,5C1,4.489 1.096,3.999 1.271,3.55C1.405,3.207 1.584,2.888 1.801,2.599Z" style="fill:rgb(0,57,133);"/>
    </g>
</svg>
