<?xml version="1.0" encoding="UTF-8" standalone="no"?>
<!DOCTYPE svg PUBLIC "-//W3C//DTD SVG 1.1//EN" "http://www.w3.org/Graphics/SVG/1.1/DTD/svg11.dtd">
<svg width="100%" height="100%" viewBox="0 0 48 48" version="1.1" xmlns="http://www.w3.org/2000/svg" xmlns:xlink="http://www.w3.org/1999/xlink" xml:space="preserve" xmlns:serif="http://www.serif.com/" style="fill-rule:evenodd;clip-rule:evenodd;stroke-linecap:round;stroke-linejoin:round;stroke-miterlimit:1.5;">
    <path d="M41,22C42.256,20.663 43,18.8 43,17C43,15.2 42.256,13.337 41,12C39.175,10.056 36.27,9 33,9L15,9L15,39C15,39 29.709,39 37,39C38.061,39 39.078,38.579 39.828,37.828C40.579,37.078 41,36.061 41,35C41,29.974 41,22 41,22" style="fill:url(#_Linear1);stroke:url(#_Linear2);stroke-width:2px;"/>
    <path d="M23,22C24.256,20.663 25,18.8 25,17C25,15.2 24.256,13.337 23,12C21.175,10.056 18.27,9 15,9C11.73,9 8.825,10.056 7,12C5.744,13.337 5,15.2 5,17C5,18.8 5.744,20.663 7,22C7,22 7,29.974 7,35C7,37.209 8.791,39 11,39C13.443,39 16.557,39 19,39C21.209,39 23,37.209 23,35C23,29.974 23,22 23,22" style="fill:url(#_Radial3);stroke:url(#_Linear4);stroke-width:2px;"/>
    <defs>
        <linearGradient id="_Linear1" x1="0" y1="0" x2="1" y2="0" gradientUnits="userSpaceOnUse" gradientTransform="matrix(1.83697e-15,30,-30,1.83697e-15,33,9)"><stop offset="0" style="stop-color:rgb(126,87,36);stop-opacity:1"/><stop offset="0.16" style="stop-color:rgb(120,83,34);stop-opacity:1"/><stop offset="0.22" style="stop-color:rgb(107,74,30);stop-opacity:1"/><stop offset="0.27" style="stop-color:rgb(95,66,27);stop-opacity:1"/><stop offset="0.37" style="stop-color:rgb(113,78,32);stop-opacity:1"/><stop offset="0.41" style="stop-color:rgb(151,104,43);stop-opacity:1"/><stop offset="0.45" style="stop-color:rgb(187,130,53);stop-opacity:1"/><stop offset="0.56" style="stop-color:rgb(175,121,50);stop-opacity:1"/><stop offset="0.68" style="stop-color:rgb(162,112,46);stop-opacity:1"/><stop offset="1" style="stop-color:rgb(156,108,44);stop-opacity:1"/></linearGradient>
        <linearGradient id="_Linear2" x1="0" y1="0" x2="1" y2="0" gradientUnits="userSpaceOnUse" gradientTransform="matrix(1.83697e-15,30,-30,1.83697e-15,15,9)"><stop offset="0" style="stop-color:rgb(126,87,36);stop-opacity:1"/><stop offset="0.16" style="stop-color:rgb(120,83,34);stop-opacity:1"/><stop offset="0.22" style="stop-color:rgb(107,74,30);stop-opacity:1"/><stop offset="0.27" style="stop-color:rgb(95,66,27);stop-opacity:1"/><stop offset="0.37" style="stop-color:rgb(113,78,32);stop-opacity:1"/><stop offset="0.41" style="stop-color:rgb(151,104,43);stop-opacity:1"/><stop offset="0.45" style="stop-color:rgb(187,130,53);stop-opacity:1"/><stop offset="0.56" style="stop-color:rgb(175,121,50);stop-opacity:1"/><stop offset="0.68" style="stop-color:rgb(162,112,46);stop-opacity:1"/><stop offset="1" style="stop-color:rgb(156,108,44);stop-opacity:1"/></linearGradient>
        <radialGradient id="_Radial3" cx="0" cy="0" r="1" gradientUnits="userSpaceOnUse" gradientTransform="matrix(-10,1.22465e-15,-2.69422e-15,-22,15,17)"><stop offset="0" style="stop-color:rgb(252,248,243);stop-opacity:1"/><stop offset="1" style="stop-color:rgb(239,221,198);stop-opacity:1"/></radialGradient>
        <linearGradient id="_Linear4" x1="0" y1="0" x2="1" y2="0" gradientUnits="userSpaceOnUse" gradientTransform="matrix(1.83697e-15,30,-30,1.83697e-15,15,9)"><stop offset="0" style="stop-color:rgb(126,87,36);stop-opacity:1"/><stop offset="0.16" style="stop-color:rgb(120,83,34);stop-opacity:1"/><stop offset="0.22" style="stop-color:rgb(107,74,30);stop-opacity:1"/><stop offset="0.27" style="stop-color:rgb(95,66,27);stop-opacity:1"/><stop offset="0.37" style="stop-color:rgb(113,78,32);stop-opacity:1"/><stop offset="0.41" style="stop-color:rgb(151,104,43);stop-opacity:1"/><stop offset="0.45" style="stop-color:rgb(187,130,53);stop-opacity:1"/><stop offset="0.56" style="stop-color:rgb(175,121,50);stop-opacity:1"/><stop offset="0.68" style="stop-color:rgb(162,112,46);stop-opacity:1"/><stop offset="1" style="stop-color:rgb(156,108,44);stop-opacity:1"/></linearGradient>
    </defs>
</svg>
